<svg width="144" height="144" viewBox="0 0 144 144" fill="none" xmlns="http://www.w3.org/2000/svg">
<rect width="144" height="144" fill="black"/>
<rect width="40" height="40" transform="translate(6 6)" fill="#3498DB"/>
<path d="M32.476 35.5H28.732L25.828 23.836H25.78L22.924 35.5H19.108L14.572 18.364H18.34L21.052 30.028H21.1L24.076 18.364H27.604L30.532 30.172H30.58L33.388 18.364H37.084L32.476 35.5Z" fill="white"/>
<rect width="40" height="40" transform="translate(52 6)" fill="#FF9800"/>
<path d="M79.2 29.02C79.2 31.34 78.552 33.068 77.256 34.204C75.96 35.324 74.168 35.884 71.88 35.884C69.56 35.884 67.76 35.324 66.48 34.204C65.216 33.084 64.584 31.356 64.584 29.02V18.364H68.352V29.02C68.352 29.484 68.392 29.94 68.472 30.388C68.552 30.836 68.72 31.236 68.976 31.588C69.232 31.924 69.584 32.204 70.032 32.428C70.496 32.636 71.112 32.74 71.88 32.74C73.224 32.74 74.152 32.444 74.664 31.852C75.176 31.244 75.432 30.3 75.432 29.02V18.364H79.2V29.02Z" fill="white"/>
<rect width="40" height="40" transform="translate(98 6)" fill="#3498DB"/>
<path d="M110.552 32.524L119.744 21.532H111.272V18.364H124.76V21.34L115.568 32.332H125V35.5H110.552V32.524Z" fill="white"/>
<rect width="40" height="40" transform="translate(6 52)" fill="#FF9800"/>
<path d="M18.552 78.524L27.744 67.532H19.272V64.364H32.76V67.34L23.568 78.332H33V81.5H18.552V78.524Z" fill="white"/>
<rect width="40" height="40" transform="translate(52 52)" fill="#3498DB"/>
<path d="M66.156 64.364H69.924V78.332H78.276V81.5H66.156V64.364Z" fill="white"/>
<rect width="40" height="40" transform="translate(98 52)" fill="#3498DB"/>
<path d="M111.656 64.364H124.472V67.532H115.424V71.204H123.728V74.132H115.424V78.332H124.664V81.5H111.656V64.364Z" fill="white"/>
<rect width="40" height="40" transform="translate(6 98)" fill="white"/>
<rect width="40" height="40" transform="translate(52 98)" fill="white"/>
<rect width="40" height="40" transform="translate(98 98)" fill="white"/>
</svg>
